<mxfile host="app.diagrams.net" modified="2023-10-23T03:19:00.966Z" agent="Mozilla/5.0 (Windows NT 10.0; Win64; x64) AppleWebKit/537.36 (KHTML, like Gecko) Chrome/118.0.0.0 Safari/537.36" etag="Yd_E6XgF1VQOh5q2Dhaf" version="22.0.6" type="github">
  <diagram name="Page-1" id="gbWCN8fTC_vHFCfVlaeZ">
    <mxGraphModel dx="607" dy="324" grid="1" gridSize="10" guides="1" tooltips="1" connect="1" arrows="1" fold="1" page="1" pageScale="1" pageWidth="850" pageHeight="1100" math="0" shadow="0">
      <root>
        <mxCell id="0" />
        <mxCell id="1" parent="0" />
        <mxCell id="iZQV7GSI2sNYGzT0FP3Y-1" value="Algoritma Memasak Air&lt;br&gt;1. Mulai&lt;br&gt;2. Siapkan kompor, panci, dan air&lt;br&gt;3. Tuang / isi air ke dalam panci sesuai kebutuhan&lt;br&gt;4. Simpan panci berisi air ke atas kompor&lt;br&gt;5. Nyalakan api kompor&lt;br&gt;6. Tunggu air hingga mendidih&lt;br&gt;7. Matikan api kompor jika air sudah mendidih&lt;br&gt;8. Air panas siap digunakan&lt;br&gt;9. Selesai" style="text;html=1;align=left;verticalAlign=middle;resizable=0;points=[];autosize=1;strokeColor=none;fillColor=none;" vertex="1" parent="1">
          <mxGeometry x="150" y="60" width="290" height="160" as="geometry" />
        </mxCell>
      </root>
    </mxGraphModel>
  </diagram>
</mxfile>
